<svg xmlns="http://www.w3.org/2000/svg" viewBox="0 0 140 140"><defs><style>.logo-icon{fill:#e23229;}</style></defs><g id="Layer_2" data-name="Layer 2"><g id="Circle_Mark_-_Color" data-name="Circle Mark - Color"><path class="logo-icon" d="M68,115.34,86.84,114l7.1-33.54L74.56,81.83l4.5-21.25,19.38-1.35,5.19-25.46L84.77,35.09,81.65,50.54,60.72,52l7.61-36.7,41.45-2.89a70,70,0,0,0-87.09,6l33.59-2.35L32.67,129.21a70.69,70.69,0,0,0,10.73,5.55l7.8-37.63,20.94-1.46Z"/><path class="logo-icon" d="M15.27,40l3.78-18a69.94,69.94,0,0,0-3.77,91.61L30.84,39Z"/><path class="logo-icon" d="M125.63,27.52,104,131.19A70,70,0,0,0,125.63,27.52Z"/><path class="logo-icon" d="M70,140a69.72,69.72,0,0,0,28-5.82l-46.69,3.27A70.11,70.11,0,0,0,70,140Z"/></g></g></svg>