<svg xmlns="http://www.w3.org/2000/svg" viewBox="0 0 140 140"><defs><style>.cls-1{fill:#e23229;}</style></defs><g id="Layer_2" data-name="Layer 2"><g id="Circle_Mark_-_Color" data-name="Circle Mark - Color"><path class="cls-1" d="M68,115.34,86.84,114l7.1-33.54L74.56,81.83l4.5-21.25,19.38-1.35,5.19-25.46L84.77,35.09,81.65,50.54,60.72,52l7.61-36.7,41.45-2.89a70,70,0,0,0-87.09,6l33.59-2.35L32.67,129.21a70.69,70.69,0,0,0,10.73,5.55l7.8-37.63,20.94-1.46Z"/><polygon class="cls-1" points="58.29 106.16 53.8 128.1 96.19 125.13 117.99 21 75.6 23.97 71.79 41.71 74.39 41.53 77.67 26.42 114.87 23.82 105.53 67.9 86.15 69.25 85.63 71.89 105.01 70.53 94.11 122.86 56.91 125.46 60.89 105.97 58.29 106.16"/><path class="cls-1" d="M27,27.28l-.52,2.46,15.57-1.09L22.64,121.54c.66.61,1.34,1.19,2,1.77L45,26Z"/><path class="cls-1" d="M15.27,40l3.78-18a69.94,69.94,0,0,0-3.77,91.61L30.84,39Z"/><path class="cls-1" d="M125.63,27.52,104,131.19A70,70,0,0,0,125.63,27.52Z"/><path class="cls-1" d="M70,140a69.72,69.72,0,0,0,28-5.82l-46.69,3.27A70.11,70.11,0,0,0,70,140Z"/></g></g></svg>