<svg xmlns="http://www.w3.org/2000/svg" viewBox="0 0 326.9 162.14"><defs><style>.cls-1{fill:#e23229;}.cls-2{fill:#fefefe;}.cls-3{fill:#d5d5d5;}</style></defs><g id="Layer_2" data-name="Layer 2"><g id="Logo_-_Color_Alt" data-name="Logo - Color Alt"><path class="cls-1" d="M242.41,124.84,263.46,24l-30,2.09-3.7,17.61,12.8-.89-17.35,83.26ZM239,35.21l.43-2,14.79-1L236.3,117.73l-2,.14L251.8,34.32Z"/><path class="cls-1" d="M266.16,53.51l17.2-1.21,2.56-12.69,15.5-1.08-4.26,20.91-15.93,1.12L277.53,78l15.93-1.11-5.83,27.56-15.5,1.09,3.41-16.17L258.33,90.6l-7,33.62,49.91-3.49,21-100.87-49.91,3.49Zm12.23-23L313.22,28l-17.91,85.58L260.47,116l3.69-18,2.14-.15-3.27,16,30.57-2.13,9-43-15.93,1.11.43-2.16L303,66.57l7.67-36.23-30.57,2.14-2.7,12.42-2.13.15Z"/><path class="cls-2" d="M68.08,35.43l-11.5,54.8,10-.69,5.1-24.12L89.1,64.2l6.4-30.68ZM81.26,54.77l-7.47.52,2.14-10.43,7.46-.52Z"/><path class="cls-2" d="M97.17,88.61l10-.7,5.11-24.12,8.14-.56-5.1,24.11,10-.69,11.5-54.8-28.1,2Zm19.34-45.37,8.15-.57L122.53,53l-8.15.57Z"/><polygon class="cls-2" points="139.38 85.99 167.41 84.03 171.37 65.32 161.39 66.02 159.57 74.6 151.5 75.17 158.73 40.62 166.8 40.05 165.35 47.01 175.33 46.31 178.91 29.23 150.88 31.19 139.38 85.99"/><polygon class="cls-2" points="216.64 36.9 218.77 26.77 193.03 28.57 181.53 83.38 207.27 81.58 209.4 71.45 193.64 72.55 196.61 58.48 207.5 57.72 209.63 47.6 198.74 48.36 200.87 38 216.64 36.9"/><polygon class="cls-3" points="30.87 115.51 17.25 116.46 18.91 108.6 25.06 108.17 23.98 113.37 31.44 112.85 34.12 100.07 13.04 101.55 8.25 124.56 21.87 123.6 19.64 134.01 13.55 134.44 14.92 128.02 7.4 128.55 4.43 142.54 25.51 141.07 30.87 115.51"/><polygon class="cls-3" points="41.58 107.01 48.76 106.51 41.75 139.93 49.22 139.41 56.22 105.99 63.4 105.49 65 97.91 43.18 99.44 41.58 107.01"/><path class="cls-3" d="M86.48,136.8l8.6-41-21,1.47-8.61,41,7.47-.52,3.81-18,6.1-.43-3.82,18Zm-8.15-24.72,1.59-7.75,6.1-.42-1.6,7.74Z"/><polygon class="cls-3" points="111.13 135.15 118.13 101.73 125.31 101.22 126.91 93.65 105.09 95.18 103.49 102.75 110.67 102.25 103.66 135.67 111.13 135.15"/><polygon class="cls-3" points="127.36 134.01 134.83 133.49 143.43 92.49 135.97 93.02 127.36 134.01"/><path class="cls-3" d="M144.84,132.85l21-1.47,8.6-41-21,1.47Zm14.47-33.94,6.09-.42L160,124.33l-6.1.43Z"/><polygon class="cls-3" points="183.33 130.23 187.26 111.61 190.68 129.72 197.17 129.26 205.78 88.27 198.31 88.79 194.38 107.69 190.96 89.3 184.47 89.76 175.87 130.75 183.33 130.23"/><polygon class="cls-2" points="18.24 74.4 14.28 93.11 42.45 91.14 49.62 56.98 31.41 58.25 33.62 47.74 41.85 47.16 40.4 54.12 50.38 53.42 53.95 36.34 41.51 37.21 16.41 38.85 24.77 43.13 19.38 69.07 37.58 67.8 34.61 81.71 26.46 82.28 28.29 73.7 18.24 74.4"/><polygon class="cls-1" points="29.29 20.52 28.49 24.45 326.05 3.99 326.9 0 29.29 20.52"/><polygon class="cls-1" points="0 162.14 297.57 141.68 298.41 137.69 0.8 158.21 0 162.14"/></g></g></svg>